<?xml version="1.0" encoding="UTF-8" standalone="no"?>
<!DOCTYPE svg PUBLIC "-//W3C//DTD SVG 1.1//EN"
 "http://www.w3.org/Graphics/SVG/1.1/DTD/svg11.dtd">
<!-- Generated by graphviz version 2.43.0 (0)
 -->
<!-- Title: CycleCountFlow Pages: 1 -->
<svg width="1912pt" height="100pt"
 viewBox="0.00 0.00 1912.17 99.61" xmlns="http://www.w3.org/2000/svg" xmlns:xlink="http://www.w3.org/1999/xlink">
<g id="graph0" class="graph" transform="scale(1 1) rotate(0) translate(4 95.61)">
<title>CycleCountFlow</title>
<polygon fill="white" stroke="transparent" points="-4,4 -4,-95.61 1908.17,-95.61 1908.17,4 -4,4"/>
<!-- start -->
<g id="node1" class="node">
<title>start</title>
<ellipse fill="none" stroke="black" cx="25.9" cy="-38.61" rx="25.8" ry="25.8"/>
<text text-anchor="middle" x="25.9" y="-36.11" font-family="Helvetica,sans-Serif" font-size="10.00">Mulai</text>
</g>
<!-- schedule -->
<g id="node2" class="node">
<title>schedule</title>
<polygon fill="none" stroke="black" points="216.8,-56.61 88.8,-56.61 88.8,-20.61 216.8,-20.61 216.8,-56.61"/>
<text text-anchor="middle" x="152.8" y="-36.11" font-family="Helvetica,sans-Serif" font-size="10.00">Jadwalkan Cycle Count</text>
</g>
<!-- start&#45;&gt;schedule -->
<g id="edge1" class="edge">
<title>start&#45;&gt;schedule</title>
<path fill="none" stroke="black" d="M51.88,-38.61C59.8,-38.61 69.01,-38.61 78.56,-38.61"/>
<polygon fill="black" stroke="black" points="78.6,-42.11 88.6,-38.61 78.6,-35.11 78.6,-42.11"/>
</g>
<!-- select -->
<g id="node3" class="node">
<title>select</title>
<polygon fill="none" stroke="black" points="360.8,-56.61 253.8,-56.61 253.8,-20.61 360.8,-20.61 360.8,-56.61"/>
<text text-anchor="middle" x="307.3" y="-36.11" font-family="Helvetica,sans-Serif" font-size="10.00">Pilih Lokasi &amp; Item</text>
</g>
<!-- schedule&#45;&gt;select -->
<g id="edge2" class="edge">
<title>schedule&#45;&gt;select</title>
<path fill="none" stroke="black" d="M217.15,-38.61C225.86,-38.61 234.79,-38.61 243.49,-38.61"/>
<polygon fill="black" stroke="black" points="243.56,-42.11 253.56,-38.61 243.56,-35.11 243.56,-42.11"/>
</g>
<!-- freeze -->
<g id="node4" class="node">
<title>freeze</title>
<polygon fill="none" stroke="black" points="558.8,-56.61 397.8,-56.61 397.8,-20.61 558.8,-20.61 558.8,-56.61"/>
<text text-anchor="middle" x="478.3" y="-36.11" font-family="Helvetica,sans-Serif" font-size="10.00">Freeze Movement Sementara</text>
</g>
<!-- select&#45;&gt;freeze -->
<g id="edge3" class="edge">
<title>select&#45;&gt;freeze</title>
<path fill="none" stroke="black" d="M360.85,-38.61C369.46,-38.61 378.59,-38.61 387.8,-38.61"/>
<polygon fill="black" stroke="black" points="387.8,-42.11 397.8,-38.61 387.8,-35.11 387.8,-42.11"/>
</g>
<!-- count -->
<g id="node5" class="node">
<title>count</title>
<polygon fill="none" stroke="black" points="669.8,-56.61 595.8,-56.61 595.8,-20.61 669.8,-20.61 669.8,-56.61"/>
<text text-anchor="middle" x="632.8" y="-36.11" font-family="Helvetica,sans-Serif" font-size="10.00">Hitung Fisik</text>
</g>
<!-- freeze&#45;&gt;count -->
<g id="edge4" class="edge">
<title>freeze&#45;&gt;count</title>
<path fill="none" stroke="black" d="M559.13,-38.61C568.14,-38.61 577.1,-38.61 585.48,-38.61"/>
<polygon fill="black" stroke="black" points="585.75,-42.11 595.75,-38.61 585.75,-35.11 585.75,-42.11"/>
</g>
<!-- record -->
<g id="node6" class="node">
<title>record</title>
<polygon fill="none" stroke="black" points="826.8,-56.61 706.8,-56.61 706.8,-20.61 826.8,-20.61 826.8,-56.61"/>
<text text-anchor="middle" x="766.8" y="-36.11" font-family="Helvetica,sans-Serif" font-size="10.00">Input Hasil ke Sistem</text>
</g>
<!-- count&#45;&gt;record -->
<g id="edge5" class="edge">
<title>count&#45;&gt;record</title>
<path fill="none" stroke="black" d="M669.87,-38.61C678.22,-38.61 687.39,-38.61 696.64,-38.61"/>
<polygon fill="black" stroke="black" points="696.67,-42.11 706.67,-38.61 696.67,-35.11 696.67,-42.11"/>
</g>
<!-- compare -->
<g id="node7" class="node">
<title>compare</title>
<polygon fill="none" stroke="black" points="987.01,-56.61 863.59,-38.61 987.01,-20.61 1110.43,-38.61 987.01,-56.61"/>
<text text-anchor="middle" x="987.01" y="-36.11" font-family="Helvetica,sans-Serif" font-size="10.00">Bandingkan vs System Qty</text>
</g>
<!-- record&#45;&gt;compare -->
<g id="edge6" class="edge">
<title>record&#45;&gt;compare</title>
<path fill="none" stroke="black" d="M826.85,-38.61C835.29,-38.61 844.23,-38.61 853.41,-38.61"/>
<polygon fill="black" stroke="black" points="853.45,-42.11 863.45,-38.61 853.45,-35.11 853.45,-42.11"/>
</g>
<!-- adjust -->
<g id="node8" class="node">
<title>adjust</title>
<polygon fill="none" stroke="black" points="1486.81,-91.61 1254.99,-91.61 1195.36,-55.61 1427.17,-55.61 1486.81,-91.61"/>
<text text-anchor="middle" x="1341.08" y="-71.11" font-family="Helvetica,sans-Serif" font-size="10.00">StockService.move adjustment</text>
</g>
<!-- compare&#45;&gt;adjust -->
<g id="edge7" class="edge">
<title>compare&#45;&gt;adjust</title>
<path fill="none" stroke="black" d="M1060.96,-45.86C1099.05,-49.65 1147.09,-54.42 1192.52,-58.94"/>
<polygon fill="black" stroke="black" points="1192.18,-62.42 1202.48,-59.93 1192.87,-55.46 1192.18,-62.42"/>
<text text-anchor="middle" x="1152.72" y="-60.41" font-family="Times,serif" font-size="14.00">Selisih</text>
</g>
<!-- review -->
<g id="node9" class="node">
<title>review</title>
<polygon fill="none" stroke="black" points="1665.95,-52.61 1523.95,-52.61 1523.95,-16.61 1665.95,-16.61 1665.95,-52.61"/>
<text text-anchor="middle" x="1594.95" y="-32.11" font-family="Helvetica,sans-Serif" font-size="10.00">Review Selisih &amp; Approve</text>
</g>
<!-- compare&#45;&gt;review -->
<g id="edge11" class="edge">
<title>compare&#45;&gt;review</title>
<path fill="none" stroke="black" d="M1083.68,-34.7C1118.75,-33.45 1158.78,-32.23 1195.22,-31.61 1324.86,-29.42 1357.3,-29.79 1486.95,-31.61 1495.59,-31.73 1504.62,-31.91 1513.61,-32.11"/>
<polygon fill="black" stroke="black" points="1513.65,-35.62 1523.73,-32.36 1513.82,-28.62 1513.65,-35.62"/>
<text text-anchor="middle" x="1341.08" y="-35.41" font-family="Times,serif" font-size="14.00">Cocok</text>
</g>
<!-- adjust&#45;&gt;review -->
<g id="edge8" class="edge">
<title>adjust&#45;&gt;review</title>
<path fill="none" stroke="black" d="M1433.72,-59.42C1459.92,-55.36 1488.27,-50.97 1513.73,-47.03"/>
<polygon fill="black" stroke="black" points="1514.35,-50.48 1523.7,-45.49 1513.28,-43.56 1514.35,-50.48"/>
</g>
<!-- release -->
<g id="node10" class="node">
<title>release</title>
<polygon fill="none" stroke="black" points="1797.95,-52.61 1702.95,-52.61 1702.95,-16.61 1797.95,-16.61 1797.95,-52.61"/>
<text text-anchor="middle" x="1750.45" y="-32.11" font-family="Helvetica,sans-Serif" font-size="10.00">Unfreeze Lokasi</text>
</g>
<!-- review&#45;&gt;release -->
<g id="edge9" class="edge">
<title>review&#45;&gt;release</title>
<path fill="none" stroke="black" d="M1665.96,-34.61C1674.94,-34.61 1684.04,-34.61 1692.77,-34.61"/>
<polygon fill="black" stroke="black" points="1692.82,-38.11 1702.82,-34.61 1692.82,-31.11 1692.82,-38.11"/>
</g>
<!-- end -->
<g id="node11" class="node">
<title>end</title>
<ellipse fill="none" stroke="black" cx="1869.56" cy="-34.61" rx="30.71" ry="30.71"/>
<ellipse fill="none" stroke="black" cx="1869.56" cy="-34.61" rx="34.72" ry="34.72"/>
<text text-anchor="middle" x="1869.56" y="-32.11" font-family="Helvetica,sans-Serif" font-size="10.00">Selesai</text>
</g>
<!-- release&#45;&gt;end -->
<g id="edge10" class="edge">
<title>release&#45;&gt;end</title>
<path fill="none" stroke="black" d="M1798.07,-34.61C1806.77,-34.61 1815.85,-34.61 1824.48,-34.61"/>
<polygon fill="black" stroke="black" points="1824.72,-38.11 1834.72,-34.61 1824.72,-31.11 1824.72,-38.11"/>
</g>
</g>
</svg>
