<?xml version="1.0" encoding="UTF-8" standalone="no"?>
<!DOCTYPE svg PUBLIC "-//W3C//DTD SVG 1.1//EN"
 "http://www.w3.org/Graphics/SVG/1.1/DTD/svg11.dtd">
<!-- Generated by graphviz version 2.43.0 (0)
 -->
<!-- Title: DriverPodFlow Pages: 1 -->
<svg width="1976pt" height="100pt"
 viewBox="0.00 0.00 1975.92 99.61" xmlns="http://www.w3.org/2000/svg" xmlns:xlink="http://www.w3.org/1999/xlink">
<g id="graph0" class="graph" transform="scale(1 1) rotate(0) translate(4 95.61)">
<title>DriverPodFlow</title>
<polygon fill="white" stroke="transparent" points="-4,4 -4,-95.61 1971.92,-95.61 1971.92,4 -4,4"/>
<!-- start -->
<g id="node1" class="node">
<title>start</title>
<ellipse fill="none" stroke="black" cx="25.9" cy="-34.61" rx="25.8" ry="25.8"/>
<text text-anchor="middle" x="25.9" y="-32.11" font-family="Helvetica,sans-Serif" font-size="10.00">Mulai</text>
</g>
<!-- assign -->
<g id="node2" class="node">
<title>assign</title>
<polygon fill="none" stroke="black" points="210.8,-52.61 88.8,-52.61 88.8,-16.61 210.8,-16.61 210.8,-52.61"/>
<text text-anchor="middle" x="149.8" y="-32.11" font-family="Helvetica,sans-Serif" font-size="10.00">Assignment ke Driver</text>
</g>
<!-- start&#45;&gt;assign -->
<g id="edge1" class="edge">
<title>start&#45;&gt;assign</title>
<path fill="none" stroke="black" d="M51.86,-34.61C59.83,-34.61 69.06,-34.61 78.61,-34.61"/>
<polygon fill="black" stroke="black" points="78.63,-38.11 88.63,-34.61 78.63,-31.11 78.63,-38.11"/>
</g>
<!-- accept -->
<g id="node3" class="node">
<title>accept</title>
<polygon fill="none" stroke="black" points="369.8,-52.61 247.8,-52.61 247.8,-16.61 369.8,-16.61 369.8,-52.61"/>
<text text-anchor="middle" x="308.8" y="-32.11" font-family="Helvetica,sans-Serif" font-size="10.00">Driver Terima via App</text>
</g>
<!-- assign&#45;&gt;accept -->
<g id="edge2" class="edge">
<title>assign&#45;&gt;accept</title>
<path fill="none" stroke="black" d="M211.05,-34.61C219.69,-34.61 228.64,-34.61 237.46,-34.61"/>
<polygon fill="black" stroke="black" points="237.71,-38.11 247.71,-34.61 237.71,-31.11 237.71,-38.11"/>
</g>
<!-- inspect -->
<g id="node4" class="node">
<title>inspect</title>
<polygon fill="none" stroke="black" points="551.8,-52.61 406.8,-52.61 406.8,-16.61 551.8,-16.61 551.8,-52.61"/>
<text text-anchor="middle" x="479.3" y="-32.11" font-family="Helvetica,sans-Serif" font-size="10.00">Inspect &amp; Muat Kendaraan</text>
</g>
<!-- accept&#45;&gt;inspect -->
<g id="edge3" class="edge">
<title>accept&#45;&gt;inspect</title>
<path fill="none" stroke="black" d="M370.16,-34.61C378.74,-34.61 387.67,-34.61 396.57,-34.61"/>
<polygon fill="black" stroke="black" points="396.58,-38.11 406.58,-34.61 396.58,-31.11 396.58,-38.11"/>
</g>
<!-- depart -->
<g id="node5" class="node">
<title>depart</title>
<polygon fill="none" stroke="black" points="710.8,-52.61 588.8,-52.61 588.8,-16.61 710.8,-16.61 710.8,-52.61"/>
<text text-anchor="middle" x="649.8" y="-32.11" font-family="Helvetica,sans-Serif" font-size="10.00">Berangkat &amp; Navigasi</text>
</g>
<!-- inspect&#45;&gt;depart -->
<g id="edge4" class="edge">
<title>inspect&#45;&gt;depart</title>
<path fill="none" stroke="black" d="M552.25,-34.61C560.99,-34.61 569.92,-34.61 578.64,-34.61"/>
<polygon fill="black" stroke="black" points="578.75,-38.11 588.75,-34.61 578.75,-31.11 578.75,-38.11"/>
</g>
<!-- arrive -->
<g id="node6" class="node">
<title>arrive</title>
<polygon fill="none" stroke="black" points="847.8,-91.61 747.8,-91.61 747.8,-55.61 847.8,-55.61 847.8,-91.61"/>
<text text-anchor="middle" x="797.8" y="-71.11" font-family="Helvetica,sans-Serif" font-size="10.00">Tiba di Customer</text>
</g>
<!-- depart&#45;&gt;arrive -->
<g id="edge5" class="edge">
<title>depart&#45;&gt;arrive</title>
<path fill="none" stroke="black" d="M711.03,-50.7C719.82,-53.05 728.86,-55.46 737.63,-57.8"/>
<polygon fill="black" stroke="black" points="736.82,-61.21 747.38,-60.41 738.62,-54.45 736.82,-61.21"/>
</g>
<!-- confirm -->
<g id="node7" class="node">
<title>confirm</title>
<polygon fill="none" stroke="black" points="983.04,-52.61 884.57,-34.61 983.04,-16.61 1081.51,-34.61 983.04,-52.61"/>
<text text-anchor="middle" x="983.04" y="-32.11" font-family="Helvetica,sans-Serif" font-size="10.00">Konfirmasi Penerima</text>
</g>
<!-- arrive&#45;&gt;confirm -->
<g id="edge6" class="edge">
<title>arrive&#45;&gt;confirm</title>
<path fill="none" stroke="black" d="M847.91,-63.16C872.22,-57.98 901.68,-51.71 926.78,-46.37"/>
<polygon fill="black" stroke="black" points="927.83,-49.73 936.88,-44.22 926.37,-42.88 927.83,-49.73"/>
</g>
<!-- confirm&#45;&gt;depart -->
<g id="edge12" class="edge">
<title>confirm&#45;&gt;depart</title>
<path fill="none" stroke="black" stroke-dasharray="5,2" d="M896.65,-32.36C852.25,-31.48 797.11,-30.85 747.8,-31.61 739.11,-31.74 729.99,-31.95 720.95,-32.18"/>
<polygon fill="black" stroke="black" points="720.72,-28.69 710.82,-32.46 720.91,-35.69 720.72,-28.69"/>
<text text-anchor="middle" x="797.8" y="-35.41" font-family="Times,serif" font-size="14.00">Tidak Ada</text>
</g>
<!-- capture -->
<g id="node8" class="node">
<title>capture</title>
<polygon fill="none" stroke="black" points="1339.91,-52.61 1191.29,-52.61 1153.06,-16.61 1301.68,-16.61 1339.91,-52.61"/>
<text text-anchor="middle" x="1246.49" y="-32.11" font-family="Helvetica,sans-Serif" font-size="10.00">Capture Foto &amp; Ttd</text>
</g>
<!-- confirm&#45;&gt;capture -->
<g id="edge7" class="edge">
<title>confirm&#45;&gt;capture</title>
<path fill="none" stroke="black" d="M1081.39,-34.61C1107.92,-34.61 1136.42,-34.61 1162.1,-34.61"/>
<polygon fill="black" stroke="black" points="1162.16,-38.11 1172.16,-34.61 1162.16,-31.11 1162.16,-38.11"/>
<text text-anchor="middle" x="1117.27" y="-38.41" font-family="Times,serif" font-size="14.00">Valid</text>
</g>
<!-- sync -->
<g id="node9" class="node">
<title>sync</title>
<polygon fill="none" stroke="black" points="1474.7,-52.61 1376.7,-52.61 1376.7,-16.61 1474.7,-16.61 1474.7,-52.61"/>
<text text-anchor="middle" x="1425.7" y="-32.11" font-family="Helvetica,sans-Serif" font-size="10.00">Sync ke Backend</text>
</g>
<!-- capture&#45;&gt;sync -->
<g id="edge8" class="edge">
<title>capture&#45;&gt;sync</title>
<path fill="none" stroke="black" d="M1320.84,-34.61C1335.94,-34.61 1351.64,-34.61 1366.13,-34.61"/>
<polygon fill="black" stroke="black" points="1366.44,-38.11 1376.44,-34.61 1366.44,-31.11 1366.44,-38.11"/>
</g>
<!-- stock -->
<g id="node10" class="node">
<title>stock</title>
<polygon fill="none" stroke="black" points="1642.7,-52.61 1511.7,-52.61 1511.7,-16.61 1642.7,-16.61 1642.7,-52.61"/>
<text text-anchor="middle" x="1577.2" y="-32.11" font-family="Helvetica,sans-Serif" font-size="10.00">StockService.move pod</text>
</g>
<!-- sync&#45;&gt;stock -->
<g id="edge9" class="edge">
<title>sync&#45;&gt;stock</title>
<path fill="none" stroke="black" d="M1474.82,-34.61C1483.32,-34.61 1492.35,-34.61 1501.37,-34.61"/>
<polygon fill="black" stroke="black" points="1501.53,-38.11 1511.53,-34.61 1501.53,-31.11 1501.53,-38.11"/>
</g>
<!-- close -->
<g id="node11" class="node">
<title>close</title>
<polygon fill="none" stroke="black" points="1861.7,-52.61 1679.7,-52.61 1679.7,-16.61 1861.7,-16.61 1861.7,-52.61"/>
<text text-anchor="middle" x="1770.7" y="-32.11" font-family="Helvetica,sans-Serif" font-size="10.00">Close Shipment &amp; Kirim Notifikasi</text>
</g>
<!-- stock&#45;&gt;close -->
<g id="edge10" class="edge">
<title>stock&#45;&gt;close</title>
<path fill="none" stroke="black" d="M1642.77,-34.61C1651.36,-34.61 1660.34,-34.61 1669.37,-34.61"/>
<polygon fill="black" stroke="black" points="1669.57,-38.11 1679.57,-34.61 1669.57,-31.11 1669.57,-38.11"/>
</g>
<!-- end -->
<g id="node12" class="node">
<title>end</title>
<ellipse fill="none" stroke="black" cx="1933.31" cy="-34.61" rx="30.71" ry="30.71"/>
<ellipse fill="none" stroke="black" cx="1933.31" cy="-34.61" rx="34.72" ry="34.72"/>
<text text-anchor="middle" x="1933.31" y="-32.11" font-family="Helvetica,sans-Serif" font-size="10.00">Selesai</text>
</g>
<!-- close&#45;&gt;end -->
<g id="edge11" class="edge">
<title>close&#45;&gt;end</title>
<path fill="none" stroke="black" d="M1861.86,-34.61C1871.01,-34.61 1879.99,-34.61 1888.31,-34.61"/>
<polygon fill="black" stroke="black" points="1888.46,-38.11 1898.46,-34.61 1888.46,-31.11 1888.46,-38.11"/>
</g>
</g>
</svg>
