<?xml version="1.0" encoding="UTF-8" standalone="no"?>
<!DOCTYPE svg PUBLIC "-//W3C//DTD SVG 1.1//EN"
 "http://www.w3.org/Graphics/SVG/1.1/DTD/svg11.dtd">
<!-- Generated by graphviz version 2.43.0 (0)
 -->
<!-- Title: InboundFlow Pages: 1 -->
<svg width="1731pt" height="77pt"
 viewBox="0.00 0.00 1730.64 77.22" xmlns="http://www.w3.org/2000/svg" xmlns:xlink="http://www.w3.org/1999/xlink">
<g id="graph0" class="graph" transform="scale(1 1) rotate(0) translate(4 73.22)">
<title>InboundFlow</title>
<polygon fill="white" stroke="transparent" points="-4,4 -4,-73.22 1726.64,-73.22 1726.64,4 -4,4"/>
<!-- start -->
<g id="node1" class="node">
<title>start</title>
<ellipse fill="none" stroke="black" cx="25.9" cy="-34.61" rx="25.8" ry="25.8"/>
<text text-anchor="middle" x="25.9" y="-32.11" font-family="Helvetica,sans-Serif" font-size="10.00">Mulai</text>
</g>
<!-- po -->
<g id="node2" class="node">
<title>po</title>
<polygon fill="none" stroke="black" points="203.8,-52.61 87.8,-52.61 87.8,-16.61 203.8,-16.61 203.8,-52.61"/>
<text text-anchor="middle" x="145.8" y="-32.11" font-family="Helvetica,sans-Serif" font-size="10.00">Buat Purchase Order</text>
</g>
<!-- start&#45;&gt;po -->
<g id="edge1" class="edge">
<title>start&#45;&gt;po</title>
<path fill="none" stroke="black" d="M51.9,-34.61C59.47,-34.61 68.16,-34.61 77.13,-34.61"/>
<polygon fill="black" stroke="black" points="77.33,-38.11 87.33,-34.61 77.33,-31.11 77.33,-38.11"/>
</g>
<!-- supplier -->
<g id="node3" class="node">
<title>supplier</title>
<polygon fill="none" stroke="black" points="355.8,-52.61 239.8,-52.61 239.8,-16.61 355.8,-16.61 355.8,-52.61"/>
<text text-anchor="middle" x="297.8" y="-32.11" font-family="Helvetica,sans-Serif" font-size="10.00">Kirim PO ke Supplier</text>
</g>
<!-- po&#45;&gt;supplier -->
<g id="edge2" class="edge">
<title>po&#45;&gt;supplier</title>
<path fill="none" stroke="black" d="M203.94,-34.61C212.18,-34.61 220.73,-34.61 229.15,-34.61"/>
<polygon fill="black" stroke="black" points="229.33,-38.11 239.33,-34.61 229.33,-31.11 229.33,-38.11"/>
</g>
<!-- asn -->
<g id="node4" class="node">
<title>asn</title>
<polygon fill="none" stroke="black" points="583.8,-52.61 391.8,-52.61 391.8,-16.61 583.8,-16.61 583.8,-52.61"/>
<text text-anchor="middle" x="487.8" y="-32.11" font-family="Helvetica,sans-Serif" font-size="10.00">Terima ASN / Jadwalkan Kedatangan</text>
</g>
<!-- supplier&#45;&gt;asn -->
<g id="edge3" class="edge">
<title>supplier&#45;&gt;asn</title>
<path fill="none" stroke="black" d="M355.97,-34.61C364.13,-34.61 372.72,-34.61 381.44,-34.61"/>
<polygon fill="black" stroke="black" points="381.73,-38.11 391.73,-34.61 381.73,-31.11 381.73,-38.11"/>
</g>
<!-- receive -->
<g id="node5" class="node">
<title>receive</title>
<polygon fill="none" stroke="black" points="744.8,-52.61 619.8,-52.61 619.8,-16.61 744.8,-16.61 744.8,-52.61"/>
<text text-anchor="middle" x="682.3" y="-32.11" font-family="Helvetica,sans-Serif" font-size="10.00">Terima Barang di Gate</text>
</g>
<!-- asn&#45;&gt;receive -->
<g id="edge4" class="edge">
<title>asn&#45;&gt;receive</title>
<path fill="none" stroke="black" d="M583.92,-34.61C592.54,-34.61 601.18,-34.61 609.54,-34.61"/>
<polygon fill="black" stroke="black" points="609.6,-38.11 619.6,-34.61 609.6,-31.11 609.6,-38.11"/>
</g>
<!-- qc -->
<g id="node6" class="node">
<title>qc</title>
<polygon fill="none" stroke="black" points="913.68,-52.61 808.02,-52.61 780.84,-16.61 886.5,-16.61 913.68,-52.61"/>
<text text-anchor="middle" x="847.26" y="-32.11" font-family="Helvetica,sans-Serif" font-size="10.00">QC &amp; Hitung</text>
</g>
<!-- receive&#45;&gt;qc -->
<g id="edge5" class="edge">
<title>receive&#45;&gt;qc</title>
<path fill="none" stroke="black" d="M744.91,-34.61C757.78,-34.61 771.36,-34.61 784.25,-34.61"/>
<polygon fill="black" stroke="black" points="784.41,-38.11 794.41,-34.61 784.41,-31.11 784.41,-38.11"/>
</g>
<!-- grn -->
<g id="node7" class="node">
<title>grn</title>
<polygon fill="none" stroke="black" points="1011.72,-52.61 949.72,-52.61 949.72,-16.61 1011.72,-16.61 1011.72,-52.61"/>
<text text-anchor="middle" x="980.72" y="-32.11" font-family="Helvetica,sans-Serif" font-size="10.00">Post GRN</text>
</g>
<!-- qc&#45;&gt;grn -->
<g id="edge6" class="edge">
<title>qc&#45;&gt;grn</title>
<path fill="none" stroke="black" d="M900.22,-34.61C913.34,-34.61 927.22,-34.61 939.66,-34.61"/>
<polygon fill="black" stroke="black" points="939.71,-38.11 949.71,-34.61 939.71,-31.11 939.71,-38.11"/>
</g>
<!-- putaway -->
<g id="node8" class="node">
<title>putaway</title>
<polygon fill="none" stroke="black" points="1232.27,-52.61 1085.6,-52.61 1047.87,-16.61 1194.54,-16.61 1232.27,-52.61"/>
<text text-anchor="middle" x="1140.07" y="-32.11" font-family="Helvetica,sans-Serif" font-size="10.00">Putaway ke Lokasi</text>
</g>
<!-- grn&#45;&gt;putaway -->
<g id="edge7" class="edge">
<title>grn&#45;&gt;putaway</title>
<path fill="none" stroke="black" d="M1012.06,-34.61C1024.8,-34.61 1040.32,-34.61 1056.06,-34.61"/>
<polygon fill="black" stroke="black" points="1056.41,-38.11 1066.41,-34.61 1056.41,-31.11 1056.41,-38.11"/>
</g>
<!-- stock -->
<g id="node9" class="node">
<title>stock</title>
<polygon fill="none" stroke="black" points="1468.42,-52.61 1268.42,-52.61 1268.42,-16.61 1468.42,-16.61 1468.42,-52.61"/>
<text text-anchor="middle" x="1368.42" y="-32.11" font-family="Helvetica,sans-Serif" font-size="10.00">StockService.move inbound_putaway</text>
</g>
<!-- putaway&#45;&gt;stock -->
<g id="edge8" class="edge">
<title>putaway&#45;&gt;stock</title>
<path fill="none" stroke="black" d="M1213.62,-34.61C1227.7,-34.61 1242.75,-34.61 1257.71,-34.61"/>
<polygon fill="black" stroke="black" points="1258.05,-38.11 1268.05,-34.61 1258.05,-31.11 1258.05,-38.11"/>
</g>
<!-- notify -->
<g id="node10" class="node">
<title>notify</title>
<polygon fill="none" stroke="black" points="1617.42,-52.61 1504.42,-52.61 1504.42,-16.61 1617.42,-16.61 1617.42,-52.61"/>
<text text-anchor="middle" x="1560.92" y="-32.11" font-family="Helvetica,sans-Serif" font-size="10.00">Notifikasi Status PO</text>
</g>
<!-- stock&#45;&gt;notify -->
<g id="edge9" class="edge">
<title>stock&#45;&gt;notify</title>
<path fill="none" stroke="black" d="M1468.58,-34.61C1477.32,-34.61 1486.01,-34.61 1494.37,-34.61"/>
<polygon fill="black" stroke="black" points="1494.38,-38.11 1504.38,-34.61 1494.38,-31.11 1494.38,-38.11"/>
</g>
<!-- end -->
<g id="node11" class="node">
<title>end</title>
<ellipse fill="none" stroke="black" cx="1688.03" cy="-34.61" rx="30.71" ry="30.71"/>
<ellipse fill="none" stroke="black" cx="1688.03" cy="-34.61" rx="34.72" ry="34.72"/>
<text text-anchor="middle" x="1688.03" y="-32.11" font-family="Helvetica,sans-Serif" font-size="10.00">Selesai</text>
</g>
<!-- notify&#45;&gt;end -->
<g id="edge10" class="edge">
<title>notify&#45;&gt;end</title>
<path fill="none" stroke="black" d="M1617.52,-34.61C1626.06,-34.61 1634.77,-34.61 1643.01,-34.61"/>
<polygon fill="black" stroke="black" points="1643.14,-38.11 1653.14,-34.61 1643.14,-31.11 1643.14,-38.11"/>
</g>
</g>
</svg>
