<?xml version="1.0" encoding="UTF-8" standalone="no"?>
<!DOCTYPE svg PUBLIC "-//W3C//DTD SVG 1.1//EN"
 "http://www.w3.org/Graphics/SVG/1.1/DTD/svg11.dtd">
<!-- Generated by graphviz version 2.43.0 (0)
 -->
<!-- Title: OutboundFlow Pages: 1 -->
<svg width="1662pt" height="77pt"
 viewBox="0.00 0.00 1662.40 77.22" xmlns="http://www.w3.org/2000/svg" xmlns:xlink="http://www.w3.org/1999/xlink">
<g id="graph0" class="graph" transform="scale(1 1) rotate(0) translate(4 73.22)">
<title>OutboundFlow</title>
<polygon fill="white" stroke="transparent" points="-4,4 -4,-73.22 1658.4,-73.22 1658.4,4 -4,4"/>
<!-- start -->
<g id="node1" class="node">
<title>start</title>
<ellipse fill="none" stroke="black" cx="25.9" cy="-34.61" rx="25.8" ry="25.8"/>
<text text-anchor="middle" x="25.9" y="-32.11" font-family="Helvetica,sans-Serif" font-size="10.00">Mulai</text>
</g>
<!-- so -->
<g id="node2" class="node">
<title>so</title>
<polygon fill="none" stroke="black" points="185.8,-52.61 87.8,-52.61 87.8,-16.61 185.8,-16.61 185.8,-52.61"/>
<text text-anchor="middle" x="136.8" y="-32.11" font-family="Helvetica,sans-Serif" font-size="10.00">Buat Sales Order</text>
</g>
<!-- start&#45;&gt;so -->
<g id="edge1" class="edge">
<title>start&#45;&gt;so</title>
<path fill="none" stroke="black" d="M51.89,-34.61C59.64,-34.61 68.54,-34.61 77.58,-34.61"/>
<polygon fill="black" stroke="black" points="77.79,-38.11 87.79,-34.61 77.79,-31.11 77.79,-38.11"/>
</g>
<!-- allocate -->
<g id="node3" class="node">
<title>allocate</title>
<polygon fill="none" stroke="black" points="463.3,-52.61 271.35,-52.61 221.97,-16.61 413.92,-16.61 463.3,-52.61"/>
<text text-anchor="middle" x="342.64" y="-32.11" font-family="Helvetica,sans-Serif" font-size="10.00">Allocate via StockService</text>
</g>
<!-- so&#45;&gt;allocate -->
<g id="edge2" class="edge">
<title>so&#45;&gt;allocate</title>
<path fill="none" stroke="black" d="M185.85,-34.61C201.1,-34.61 218.61,-34.61 236.26,-34.61"/>
<polygon fill="black" stroke="black" points="236.65,-38.11 246.65,-34.61 236.65,-31.11 236.65,-38.11"/>
</g>
<!-- picklist -->
<g id="node4" class="node">
<title>picklist</title>
<polygon fill="none" stroke="black" points="604.47,-52.61 499.47,-52.61 499.47,-16.61 604.47,-16.61 604.47,-52.61"/>
<text text-anchor="middle" x="551.97" y="-32.11" font-family="Helvetica,sans-Serif" font-size="10.00">Generate Pick List</text>
</g>
<!-- allocate&#45;&gt;picklist -->
<g id="edge3" class="edge">
<title>allocate&#45;&gt;picklist</title>
<path fill="none" stroke="black" d="M438.81,-34.61C455.92,-34.61 473.35,-34.61 489.2,-34.61"/>
<polygon fill="black" stroke="black" points="489.38,-38.11 499.38,-34.61 489.38,-31.11 489.38,-38.11"/>
</g>
<!-- picking -->
<g id="node5" class="node">
<title>picking</title>
<polygon fill="none" stroke="black" points="747.47,-52.61 640.47,-52.61 640.47,-16.61 747.47,-16.61 747.47,-52.61"/>
<text text-anchor="middle" x="693.97" y="-32.11" font-family="Helvetica,sans-Serif" font-size="10.00">Picking &amp; Scan Lot</text>
</g>
<!-- picklist&#45;&gt;picking -->
<g id="edge4" class="edge">
<title>picklist&#45;&gt;picking</title>
<path fill="none" stroke="black" d="M604.7,-34.61C612.9,-34.61 621.45,-34.61 629.87,-34.61"/>
<polygon fill="black" stroke="black" points="630.04,-38.11 640.04,-34.61 630.04,-31.11 630.04,-38.11"/>
</g>
<!-- packing -->
<g id="node6" class="node">
<title>packing</title>
<polygon fill="none" stroke="black" points="877.47,-52.61 783.47,-52.61 783.47,-16.61 877.47,-16.61 877.47,-52.61"/>
<text text-anchor="middle" x="830.47" y="-32.11" font-family="Helvetica,sans-Serif" font-size="10.00">Packing &amp; Label</text>
</g>
<!-- picking&#45;&gt;packing -->
<g id="edge5" class="edge">
<title>picking&#45;&gt;packing</title>
<path fill="none" stroke="black" d="M747.74,-34.61C756.11,-34.61 764.8,-34.61 773.24,-34.61"/>
<polygon fill="black" stroke="black" points="773.39,-38.11 783.39,-34.61 773.39,-31.11 773.39,-38.11"/>
</g>
<!-- ship -->
<g id="node7" class="node">
<title>ship</title>
<polygon fill="none" stroke="black" points="1011.47,-52.61 913.47,-52.61 913.47,-16.61 1011.47,-16.61 1011.47,-52.61"/>
<text text-anchor="middle" x="962.47" y="-32.11" font-family="Helvetica,sans-Serif" font-size="10.00">Create Shipment</text>
</g>
<!-- packing&#45;&gt;ship -->
<g id="edge6" class="edge">
<title>packing&#45;&gt;ship</title>
<path fill="none" stroke="black" d="M877.67,-34.61C885.86,-34.61 894.5,-34.61 902.98,-34.61"/>
<polygon fill="black" stroke="black" points="903.22,-38.11 913.22,-34.61 903.22,-31.11 903.22,-38.11"/>
</g>
<!-- load -->
<g id="node8" class="node">
<title>load</title>
<polygon fill="none" stroke="black" points="1156.47,-52.61 1047.47,-52.61 1047.47,-16.61 1156.47,-16.61 1156.47,-52.61"/>
<text text-anchor="middle" x="1101.97" y="-32.11" font-family="Helvetica,sans-Serif" font-size="10.00">Load ke Kendaraan</text>
</g>
<!-- ship&#45;&gt;load -->
<g id="edge7" class="edge">
<title>ship&#45;&gt;load</title>
<path fill="none" stroke="black" d="M1011.56,-34.61C1019.71,-34.61 1028.28,-34.61 1036.77,-34.61"/>
<polygon fill="black" stroke="black" points="1037.03,-38.11 1047.03,-34.61 1037.03,-31.11 1037.03,-38.11"/>
</g>
<!-- pod -->
<g id="node9" class="node">
<title>pod</title>
<polygon fill="none" stroke="black" points="1358.04,-52.61 1226.46,-52.61 1192.61,-16.61 1324.19,-16.61 1358.04,-52.61"/>
<text text-anchor="middle" x="1275.32" y="-32.11" font-family="Helvetica,sans-Serif" font-size="10.00">PoD &#45; Foto &amp; Ttd</text>
</g>
<!-- load&#45;&gt;pod -->
<g id="edge8" class="edge">
<title>load&#45;&gt;pod</title>
<path fill="none" stroke="black" d="M1156.72,-34.61C1170.14,-34.61 1184.79,-34.61 1199.05,-34.61"/>
<polygon fill="black" stroke="black" points="1199.34,-38.11 1209.34,-34.61 1199.34,-31.11 1199.34,-38.11"/>
</g>
<!-- stock -->
<g id="node10" class="node">
<title>stock</title>
<polygon fill="none" stroke="black" points="1549.18,-52.61 1394.18,-52.61 1394.18,-16.61 1549.18,-16.61 1549.18,-52.61"/>
<text text-anchor="middle" x="1471.68" y="-32.11" font-family="Helvetica,sans-Serif" font-size="10.00">StockService.move ship/pod</text>
</g>
<!-- pod&#45;&gt;stock -->
<g id="edge9" class="edge">
<title>pod&#45;&gt;stock</title>
<path fill="none" stroke="black" d="M1341.31,-34.61C1354.9,-34.61 1369.43,-34.61 1383.67,-34.61"/>
<polygon fill="black" stroke="black" points="1383.97,-38.11 1393.97,-34.61 1383.97,-31.11 1383.97,-38.11"/>
</g>
<!-- end -->
<g id="node11" class="node">
<title>end</title>
<ellipse fill="none" stroke="black" cx="1619.79" cy="-34.61" rx="30.71" ry="30.71"/>
<ellipse fill="none" stroke="black" cx="1619.79" cy="-34.61" rx="34.72" ry="34.72"/>
<text text-anchor="middle" x="1619.79" y="-32.11" font-family="Helvetica,sans-Serif" font-size="10.00">Selesai</text>
</g>
<!-- stock&#45;&gt;end -->
<g id="edge10" class="edge">
<title>stock&#45;&gt;end</title>
<path fill="none" stroke="black" d="M1549.59,-34.61C1558.19,-34.61 1566.73,-34.61 1574.71,-34.61"/>
<polygon fill="black" stroke="black" points="1574.84,-38.11 1584.84,-34.61 1574.84,-31.11 1574.84,-38.11"/>
</g>
</g>
</svg>
