<?xml version="1.0" encoding="UTF-8" standalone="no"?>
<!DOCTYPE svg PUBLIC "-//W3C//DTD SVG 1.1//EN"
 "http://www.w3.org/Graphics/SVG/1.1/DTD/svg11.dtd">
<!-- Generated by graphviz version 2.43.0 (0)
 -->
<!-- Title: TransferAdjustFlow Pages: 1 -->
<svg width="1495pt" height="95pt"
 viewBox="0.00 0.00 1494.84 94.61" xmlns="http://www.w3.org/2000/svg" xmlns:xlink="http://www.w3.org/1999/xlink">
<g id="graph0" class="graph" transform="scale(1 1) rotate(0) translate(4 90.61)">
<title>TransferAdjustFlow</title>
<polygon fill="white" stroke="transparent" points="-4,4 -4,-90.61 1490.84,-90.61 1490.84,4 -4,4"/>
<!-- start -->
<g id="node1" class="node">
<title>start</title>
<ellipse fill="none" stroke="black" cx="25.9" cy="-34.61" rx="25.8" ry="25.8"/>
<text text-anchor="middle" x="25.9" y="-32.11" font-family="Helvetica,sans-Serif" font-size="10.00">Mulai</text>
</g>
<!-- request -->
<g id="node2" class="node">
<title>request</title>
<polygon fill="none" stroke="black" points="220.8,-86.61 88.8,-86.61 88.8,-50.61 220.8,-50.61 220.8,-86.61"/>
<text text-anchor="middle" x="154.8" y="-66.11" font-family="Helvetica,sans-Serif" font-size="10.00">Request Transfer/Adjust</text>
</g>
<!-- start&#45;&gt;request -->
<g id="edge1" class="edge">
<title>start&#45;&gt;request</title>
<path fill="none" stroke="black" d="M51.07,-41.09C59.3,-43.29 68.98,-45.88 79.06,-48.58"/>
<polygon fill="black" stroke="black" points="78.24,-51.99 88.8,-51.19 80.05,-45.23 78.24,-51.99"/>
</g>
<!-- validate -->
<g id="node3" class="node">
<title>validate</title>
<polygon fill="none" stroke="black" points="418.8,-86.61 296.8,-86.61 296.8,-50.61 418.8,-50.61 418.8,-86.61"/>
<text text-anchor="middle" x="357.8" y="-66.11" font-family="Helvetica,sans-Serif" font-size="10.00">Validasi Qty &amp; Alasan</text>
</g>
<!-- request&#45;&gt;validate -->
<g id="edge2" class="edge">
<title>request&#45;&gt;validate</title>
<path fill="none" stroke="black" d="M221.06,-68.61C241.95,-68.61 265.15,-68.61 286.39,-68.61"/>
<polygon fill="black" stroke="black" points="286.64,-72.11 296.64,-68.61 286.64,-65.11 286.64,-72.11"/>
</g>
<!-- approval -->
<g id="node4" class="node">
<title>approval</title>
<polygon fill="none" stroke="black" points="551.54,-52.61 455.56,-34.61 551.54,-16.61 647.51,-34.61 551.54,-52.61"/>
<text text-anchor="middle" x="551.54" y="-32.11" font-family="Helvetica,sans-Serif" font-size="10.00">Approval Supervisor</text>
</g>
<!-- validate&#45;&gt;approval -->
<g id="edge3" class="edge">
<title>validate&#45;&gt;approval</title>
<path fill="none" stroke="black" d="M418.94,-57.95C442.09,-53.84 468.49,-49.16 491.53,-45.07"/>
<polygon fill="black" stroke="black" points="492.29,-48.49 501.52,-43.3 491.06,-41.6 492.29,-48.49"/>
</g>
<!-- approval&#45;&gt;start -->
<g id="edge8" class="edge">
<title>approval&#45;&gt;start</title>
<path fill="none" stroke="black" stroke-dasharray="5,2" d="M455.56,-34.61C337.51,-34.61 141.87,-34.61 62.25,-34.61"/>
<polygon fill="black" stroke="black" points="61.81,-31.11 51.81,-34.61 61.81,-38.11 61.81,-31.11"/>
<text text-anchor="middle" x="258.8" y="-38.41" font-family="Times,serif" font-size="14.00">Tidak</text>
</g>
<!-- prepare -->
<g id="node5" class="node">
<title>prepare</title>
<polygon fill="none" stroke="black" points="826.28,-52.61 700.28,-52.61 700.28,-16.61 826.28,-16.61 826.28,-52.61"/>
<text text-anchor="middle" x="763.28" y="-32.11" font-family="Helvetica,sans-Serif" font-size="10.00">Siapkan Barang / Form</text>
</g>
<!-- approval&#45;&gt;prepare -->
<g id="edge4" class="edge">
<title>approval&#45;&gt;prepare</title>
<path fill="none" stroke="black" d="M647.28,-34.61C661.56,-34.61 676.08,-34.61 689.79,-34.61"/>
<polygon fill="black" stroke="black" points="690.1,-38.11 700.1,-34.61 690.1,-31.11 690.1,-38.11"/>
<text text-anchor="middle" x="673.78" y="-38.41" font-family="Times,serif" font-size="14.00">Ya</text>
</g>
<!-- execute -->
<g id="node6" class="node">
<title>execute</title>
<polygon fill="none" stroke="black" points="1182.79,-52.61 928.52,-52.61 863.1,-16.61 1117.38,-16.61 1182.79,-52.61"/>
<text text-anchor="middle" x="1022.95" y="-32.11" font-family="Helvetica,sans-Serif" font-size="10.00">StockService.move transfer/adjust</text>
</g>
<!-- prepare&#45;&gt;execute -->
<g id="edge5" class="edge">
<title>prepare&#45;&gt;execute</title>
<path fill="none" stroke="black" d="M826.32,-34.61C844.37,-34.61 864.83,-34.61 885.55,-34.61"/>
<polygon fill="black" stroke="black" points="885.73,-38.11 895.73,-34.61 885.73,-31.11 885.73,-38.11"/>
</g>
<!-- audit -->
<g id="node7" class="node">
<title>audit</title>
<polygon fill="none" stroke="black" points="1380.62,-52.61 1219.62,-52.61 1219.62,-16.61 1380.62,-16.61 1380.62,-52.61"/>
<text text-anchor="middle" x="1300.12" y="-32.11" font-family="Helvetica,sans-Serif" font-size="10.00">Catat Movement &amp; Audit Trail</text>
</g>
<!-- execute&#45;&gt;audit -->
<g id="edge6" class="edge">
<title>execute&#45;&gt;audit</title>
<path fill="none" stroke="black" d="M1150.26,-34.61C1170.26,-34.61 1190.58,-34.61 1209.51,-34.61"/>
<polygon fill="black" stroke="black" points="1209.58,-38.11 1219.58,-34.61 1209.58,-31.11 1209.58,-38.11"/>
</g>
<!-- end -->
<g id="node8" class="node">
<title>end</title>
<ellipse fill="none" stroke="black" cx="1452.23" cy="-34.61" rx="30.71" ry="30.71"/>
<ellipse fill="none" stroke="black" cx="1452.23" cy="-34.61" rx="34.72" ry="34.72"/>
<text text-anchor="middle" x="1452.23" y="-32.11" font-family="Helvetica,sans-Serif" font-size="10.00">Selesai</text>
</g>
<!-- audit&#45;&gt;end -->
<g id="edge7" class="edge">
<title>audit&#45;&gt;end</title>
<path fill="none" stroke="black" d="M1381.01,-34.61C1390.07,-34.61 1399.03,-34.61 1407.37,-34.61"/>
<polygon fill="black" stroke="black" points="1407.56,-38.11 1417.56,-34.61 1407.56,-31.11 1407.56,-38.11"/>
</g>
</g>
</svg>
